{"accessors":[{"name":"object0_1_positions","componentType":5126,"count":26920,"min":[-13.645090103149414,-31.947479248046875,-0.6022300124168396],"max":[13.645090103149414,31.926780700683594,16.311809539794922],"type":"VEC3","bufferView":0,"byteOffset":0},{"name":"object0_1_normals","componentType":5126,"count":26920,"min":[-1,-1,-1],"max":[1,1,1],"type":"VEC3","bufferView":0,"byteOffset":430992},{"name":"object0_1_texcoords","componentType":5126,"count":26920,"min":[0.0009399999980814755,0.000750000006519258],"max":[0.999019980430603,0.9970700144767761],"type":"VEC2","bufferView":1,"byteOffset":0},{"name":"object0_1_0_indices","componentType":5123,"count":2562,"min":[0],"max":[1089],"type":"SCALAR","bufferView":2,"byteOffset":0},{"name":"object0_1_1_indices","componentType":5123,"count":24732,"min":[1090],"max":[10823],"type":"SCALAR","bufferView":2,"byteOffset":5124},{"name":"object0_1_2_indices","componentType":5123,"count":1623,"min":[10824],"max":[11324],"type":"SCALAR","bufferView":2,"byteOffset":54588},{"name":"object0_1_3_indices","componentType":5123,"count":1032,"min":[11325],"max":[11638],"type":"SCALAR","bufferView":2,"byteOffset":57836},{"name":"object0_1_4_indices","componentType":5123,"count":5418,"min":[11639],"max":[13716],"type":"SCALAR","bufferView":2,"byteOffset":59900},{"name":"object0_1_5_indices","componentType":5123,"count":25584,"min":[13717],"max":[21349],"type":"SCALAR","bufferView":2,"byteOffset":70736},{"name":"object0_1_6_indices","componentType":5123,"count":3876,"min":[21350],"max":[22653],"type":"SCALAR","bufferView":2,"byteOffset":121904},{"name":"object0_1_7_indices","componentType":5123,"count":9834,"min":[22654],"max":[26835],"type":"SCALAR","bufferView":2,"byteOffset":129656},{"name":"object0_1_8_indices","componentType":5123,"count":132,"min":[26836],"max":[26919],"type":"SCALAR","bufferView":2,"byteOffset":149324},{"name":"Object01_1_positions","componentType":5126,"count":1992,"min":[-12.471870422363281,-23.975120544433594,-1.8681700229644775],"max":[12.471870422363281,22.690120697021484,7.2918901443481445],"type":"VEC3","bufferView":0,"byteOffset":323040},{"name":"Object01_1_normals","componentType":5126,"count":1992,"min":[-0.9955000281333923,-0.9945499897003174,-0.9999899864196777],"max":[0.9955000281333923,0.9945499897003174,0.996429979801178],"type":"VEC3","bufferView":0,"byteOffset":754032},{"name":"Object01_1_texcoords","componentType":5126,"count":1992,"min":[0,0.00033999999868683517],"max":[30,0.9516599774360657],"type":"VEC2","bufferView":1,"byteOffset":215360},{"name":"Object01_1_0_indices","componentType":5123,"count":8400,"min":[0],"max":[1991],"type":"SCALAR","bufferView":2,"byteOffset":149588},{"name":"Object02_1_positions","componentType":5126,"count":7004,"min":[-12.51852035522461,-22.74721908569336,-0.639240026473999],"max":[12.51852035522461,21.46221923828125,6.060140132904053],"type":"VEC3","bufferView":0,"byteOffset":346944},{"name":"Object02_1_normals","componentType":5126,"count":7004,"min":[-1,-0.9993900060653687,-0.9977499842643738],"max":[1,0.9993799924850464,0.9976300001144409],"type":"VEC3","bufferView":0,"byteOffset":777936},{"name":"Object02_1_texcoords","componentType":5126,"count":7004,"min":[0.0063599999994039536,0.0011099999537691474],"max":[0.9941400289535522,0.9960899949073792],"type":"VEC2","bufferView":1,"byteOffset":231296},{"name":"Object02_1_0_indices","componentType":5123,"count":18840,"min":[0],"max":[7003],"type":"SCALAR","bufferView":2,"byteOffset":166388}],"asset":{"generator":"obj2gltf","version":"2.0"},"buffers":[{"name":"scene","byteLength":2170044,"uri":"data:application/octet-stream;base64,"}],"bufferViews":[{"name":"bufferView_0","buffer":0,"byteLength":861984,"byteOffset":0,"byteStride":12,"target":34962},{"name":"bufferView_1","buffer":0,"byteLength":287328,"byteOffset":861984,"byteStride":8,"target":34962},{"name":"bufferView_2","buffer":0,"byteLength":204068,"byteOffset":1149312,"target":34963},{"buffer":0,"byteOffset":1353380,"byteLength":289117},{"buffer":0,"byteOffset":1642497,"byteLength":252246},{"buffer":0,"byteOffset":1894743,"byteLength":214351},{"buffer":0,"byteOffset":2109094,"byteLength":20080},{"buffer":0,"byteOffset":2129174,"byteLength":40869}],"images":[{"name":"lights","mimeType":"image/png","bufferView":3},{"name":"nodamage","mimeType":"image/png","bufferView":4},{"name":"undercarriage","mimeType":"image/png","bufferView":5},{"name":"tirea0","mimeType":"image/png","bufferView":6},{"name":"wheel","mimeType":"image/png","bufferView":7}],"materials":[{"name":"lights0","pbrMetallicRoughness":{"baseColorTexture":{"index":0},"baseColorFactor":[1,1,1,1],"metallicFactor":0,"roughnessFactor":0.992},"emissiveFactor":[0,0,0],"alphaMode":"OPAQUE","doubleSided":false},{"name":"nodmg","pbrMetallicRoughness":{"baseColorTexture":{"index":1},"baseColorFactor":[1,1,1,1],"metallicFactor":0,"roughnessFactor":0.992},"emissiveFactor":[0,0,0],"alphaMode":"OPAQUE","doubleSided":false},{"name":"glass","pbrMetallicRoughness":{"baseColorFactor":[0.5,0.5,0.5,0.53],"metallicFactor":0,"roughnessFactor":0.9657033},"emissiveFactor":[0,0,0],"alphaMode":"BLEND","doubleSided":true},{"name":"lights1","pbrMetallicRoughness":{"baseColorTexture":{"index":0},"baseColorFactor":[1,1,1,1],"metallicFactor":0,"roughnessFactor":0.992},"emissiveFactor":[0,0,0],"alphaMode":"OPAQUE","doubleSided":false},{"name":"black","pbrMetallicRoughness":{"baseColorFactor":[0.113725,0.113725,0.113725,1],"metallicFactor":0,"roughnessFactor":0.9740079},"emissiveFactor":[0,0,0],"alphaMode":"OPAQUE","doubleSided":false},{"name":"c0","pbrMetallicRoughness":{"baseColorFactor":[1,1,0,1],"metallicFactor":0,"roughnessFactor":0.9773726},"emissiveFactor":[0,0,0],"alphaMode":"OPAQUE","doubleSided":false},{"name":"inner_rim","pbrMetallicRoughness":{"baseColorFactor":[1,1,1,1],"metallicFactor":0,"roughnessFactor":0.9816208},"emissiveFactor":[0,0,0],"alphaMode":"OPAQUE","doubleSided":false},{"name":"undercarriage","pbrMetallicRoughness":{"baseColorTexture":{"index":2},"baseColorFactor":[1,1,1,1],"metallicFactor":0,"roughnessFactor":0.992},"emissiveFactor":[0,0,0],"alphaMode":"OPAQUE","doubleSided":false},{"name":"badge","pbrMetallicRoughness":{"baseColorTexture":{"index":1},"baseColorFactor":[1,1,1,1],"metallicFactor":0,"roughnessFactor":0.992},"emissiveFactor":[0,0,0],"alphaMode":"OPAQUE","doubleSided":false},{"name":"tire","pbrMetallicRoughness":{"baseColorTexture":{"index":3},"baseColorFactor":[1,1,1,1],"metallicFactor":0,"roughnessFactor":0.992},"emissiveFactor":[0,0,0],"alphaMode":"OPAQUE","doubleSided":false},{"name":"rim","pbrMetallicRoughness":{"baseColorTexture":{"index":4},"baseColorFactor":[1,1,1,1],"metallicFactor":0,"roughnessFactor":0.9577757},"emissiveFactor":[0,0,0],"alphaMode":"OPAQUE","doubleSided":false}],"meshes":[{"name":"object0_1","primitives":[{"attributes":{"POSITION":0,"NORMAL":1,"TEXCOORD_0":2},"indices":3,"material":0,"mode":4},{"attributes":{"POSITION":0,"NORMAL":1,"TEXCOORD_0":2},"indices":4,"material":1,"mode":4},{"attributes":{"POSITION":0,"NORMAL":1,"TEXCOORD_0":2},"indices":5,"material":2,"mode":4},{"attributes":{"POSITION":0,"NORMAL":1,"TEXCOORD_0":2},"indices":6,"material":3,"mode":4},{"attributes":{"POSITION":0,"NORMAL":1,"TEXCOORD_0":2},"indices":7,"material":4,"mode":4},{"attributes":{"POSITION":0,"NORMAL":1,"TEXCOORD_0":2},"indices":8,"material":5,"mode":4},{"attributes":{"POSITION":0,"NORMAL":1,"TEXCOORD_0":2},"indices":9,"material":6,"mode":4},{"attributes":{"POSITION":0,"NORMAL":1,"TEXCOORD_0":2},"indices":10,"material":7,"mode":4},{"attributes":{"POSITION":0,"NORMAL":1,"TEXCOORD_0":2},"indices":11,"material":8,"mode":4}]},{"name":"Object01_1","primitives":[{"attributes":{"POSITION":12,"NORMAL":13,"TEXCOORD_0":14},"indices":15,"material":9,"mode":4}]},{"name":"Object02_1","primitives":[{"attributes":{"POSITION":16,"NORMAL":17,"TEXCOORD_0":18},"indices":19,"material":10,"mode":4}]}],"nodes":[{"name":"object0","mesh":0},{"name":"Object01","mesh":1},{"name":"Object02","mesh":2}],"samplers":[{"magFilter":9729,"minFilter":9986,"wrapS":10497,"wrapT":10497}],"scene":0,"scenes":[{"nodes":[0,1,2]}],"textures":[{"name":"lights","sampler":0,"source":0},{"name":"nodamage","sampler":0,"source":1},{"name":"undercarriage","sampler":0,"source":2},{"name":"tirea0","sampler":0,"source":3},{"name":"wheel","sampler":0,"source":4}]}
